<svg width="26" height="25" viewBox="0 0 26 25" fill="none" xmlns="http://www.w3.org/2000/svg">
<path d="M3 24.25C2.3125 24.25 1.72417 24.0054 1.235 23.5163C0.745833 23.0271 0.500833 22.4383 0.5 21.75V8C0.5 7.3125 0.745 6.72417 1.235 6.235C1.725 5.74583 2.31333 5.50083 3 5.5H8V3C8 2.3125 8.245 1.72417 8.735 1.235C9.225 0.745833 9.81333 0.500833 10.5 0.5H15.5C16.1875 0.5 16.7763 0.745 17.2663 1.235C17.7563 1.725 18.0008 2.31333 18 3V5.5H23C23.6875 5.5 24.2763 5.745 24.7663 6.235C25.2563 6.725 25.5008 7.31333 25.5 8V21.75C25.5 22.4375 25.2554 23.0263 24.7663 23.5163C24.2771 24.0063 23.6883 24.2508 23 24.25H3ZM10.5 5.5H15.5V3H10.5V5.5Z" fill="white"/>
</svg>
