<svg width="22" height="26" viewBox="0 0 22 26" fill="none" xmlns="http://www.w3.org/2000/svg">
<path d="M12 25.5L11.6875 21.75H11.375C8.41667 21.75 5.90625 20.7188 3.84375 18.6562C1.78125 16.5938 0.75 14.0833 0.75 11.125C0.75 8.16667 1.78125 5.65625 3.84375 3.59375C5.90625 1.53125 8.41667 0.5 11.375 0.5C12.8542 0.5 14.2346 0.775833 15.5162 1.3275C16.7979 1.87917 17.9229 2.63958 18.8913 3.60875C19.8596 4.57792 20.6196 5.70292 21.1712 6.98375C21.7229 8.26458 21.9992 9.645 22 11.125C22 12.6875 21.745 14.1875 21.235 15.625C20.725 17.0625 20.0267 18.3958 19.14 19.625C18.255 20.8542 17.2029 21.9688 15.9838 22.9688C14.7646 23.9688 13.4367 24.8125 12 25.5ZM11.3438 17.9688C11.6979 17.9688 12 17.8438 12.25 17.5938C12.5 17.3438 12.625 17.0417 12.625 16.6875C12.625 16.3333 12.5 16.0313 12.25 15.7812C12 15.5312 11.6979 15.4062 11.3438 15.4062C10.9896 15.4062 10.6875 15.5312 10.4375 15.7812C10.1875 16.0313 10.0625 16.3333 10.0625 16.6875C10.0625 17.0417 10.1875 17.3438 10.4375 17.5938C10.6875 17.8438 10.9896 17.9688 11.3438 17.9688ZM10.4375 14H12.3125C12.3125 13.375 12.375 12.9375 12.5 12.6875C12.625 12.4375 13.0208 11.9792 13.6875 11.3125C14.0625 10.9375 14.375 10.5312 14.625 10.0938C14.875 9.65625 15 9.1875 15 8.6875C15 7.625 14.6408 6.82792 13.9225 6.29625C13.2042 5.76458 12.355 5.49917 11.375 5.5C10.4583 5.5 9.6875 5.75542 9.0625 6.26625C8.4375 6.77708 8 7.39667 7.75 8.125L9.5 8.8125C9.60417 8.45833 9.80208 8.10958 10.0938 7.76625C10.3854 7.42292 10.8125 7.25083 11.375 7.25C11.9375 7.25 12.3596 7.40625 12.6412 7.71875C12.9229 8.03125 13.0633 8.375 13.0625 8.75C13.0625 9.10417 12.9583 9.42208 12.75 9.70375C12.5417 9.98542 12.2917 10.2717 12 10.5625C11.2708 11.1875 10.8283 11.6825 10.6725 12.0475C10.5167 12.4125 10.4383 13.0633 10.4375 14Z" fill="white"/>
</svg>
