<svg width="54" height="32" viewBox="0 0 54 32" fill="none" xmlns="http://www.w3.org/2000/svg">
<path d="M18 29.25C18 28.6533 18.2371 28.081 18.659 27.659C19.081 27.2371 19.6533 27 20.25 27H33.75C34.3467 27 34.919 27.2371 35.341 27.659C35.7629 28.081 36 28.6533 36 29.25C36 29.8467 35.7629 30.419 35.341 30.841C34.919 31.2629 34.3467 31.5 33.75 31.5H20.25C19.6533 31.5 19.081 31.2629 18.659 30.841C18.2371 30.419 18 29.8467 18 29.25ZM9 15.75C9 15.1533 9.23705 14.581 9.65901 14.159C10.081 13.7371 10.6533 13.5 11.25 13.5H42.75C43.3467 13.5 43.919 13.7371 44.341 14.159C44.7629 14.581 45 15.1533 45 15.75C45 16.3467 44.7629 16.919 44.341 17.341C43.919 17.7629 43.3467 18 42.75 18H11.25C10.6533 18 10.081 17.7629 9.65901 17.341C9.23705 16.919 9 16.3467 9 15.75ZM0 2.25C0 1.65326 0.237053 1.08097 0.65901 0.65901C1.08097 0.237053 1.65326 0 2.25 0H51.75C52.3467 0 52.919 0.237053 53.341 0.65901C53.7629 1.08097 54 1.65326 54 2.25C54 2.84674 53.7629 3.41903 53.341 3.84099C52.919 4.26295 52.3467 4.5 51.75 4.5H2.25C1.65326 4.5 1.08097 4.26295 0.65901 3.84099C0.237053 3.41903 0 2.84674 0 2.25Z" fill="#545454"/>
</svg>
